HIERARCHY
ROOT pelvis
{
	OFFSET 0.000000 0.000000 0.707438
	CHANNELS 6 Xposition Yposition Zposition Xrotation Yrotation Zrotation
	JOINT spine
	{
		OFFSET 0.000000 0.000000 0.000000
		CHANNELS 6 Xposition Yposition Zposition Xrotation Yrotation Zrotation
		JOINT spine.001
		{
			OFFSET 0.000000 -0.013424 0.256146
			CHANNELS 3 Xrotation Yrotation Zrotation
			JOINT neck
			{
				OFFSET 0.000000 0.031259 0.254585
				CHANNELS 6 Xposition Yposition Zposition Xrotation Yrotation Zrotation
				JOINT face
				{
					OFFSET 0.000000 0.003353 0.192079
					CHANNELS 6 Xposition Yposition Zposition Xrotation Yrotation Zrotation
					End Site
					{
						OFFSET 0.000000 -0.028655 -0.007392
					}
				}
			}
			JOINT shoulder.L
			{
				OFFSET 0.000000 0.031259 0.254585
				CHANNELS 6 Xposition Yposition Zposition Yrotation Xrotation Zrotation
				JOINT upper_arm.L
				{
					OFFSET 0.165513 0.000000 0.000000
					CHANNELS 6 Xposition Yposition Zposition Xrotation Yrotation Zrotation
					JOINT forearm.L
					{
						OFFSET 0.256711 0.000110 0.000915
						CHANNELS 6 Xposition Yposition Zposition Xrotation Yrotation Zrotation
						End Site
						{
							OFFSET 0.221087 -0.003758 -0.001259
						}
					}
				}
			}
			JOINT shoulder.R
			{
				OFFSET 0.000000 0.031259 0.254585
				CHANNELS 6 Xposition Yposition Zposition Yrotation Xrotation Zrotation
				JOINT upper_arm.R
				{
					OFFSET -0.165513 0.000000 0.000000
					CHANNELS 6 Xposition Yposition Zposition Xrotation Yrotation Zrotation
					JOINT forearm.R
					{
						OFFSET -0.253497 0.000110 0.000915
						CHANNELS 6 Xposition Yposition Zposition Xrotation Yrotation Zrotation
						End Site
						{
							OFFSET -0.225317 -0.003832 -0.001260
						}
					}
				}
			}
		}
	}
	JOINT pelvis.L
	{
		OFFSET 0.000000 0.000000 0.000000
		CHANNELS 6 Xposition Yposition Zposition Yrotation Xrotation Zrotation
		End Site
		{
			OFFSET 0.101093 0.000000 0.000000
		}
	}
	JOINT pelvis.R
	{
		OFFSET 0.000000 0.000000 0.000000
		CHANNELS 6 Xposition Yposition Zposition Yrotation Xrotation Zrotation
		End Site
		{
			OFFSET -0.101093 0.000000 0.000000
		}
	}
	JOINT thigh.L
	{
		OFFSET 0.101093 0.000000 0.000000
		CHANNELS 6 Xposition Yposition Zposition Xrotation Yrotation Zrotation
		JOINT shin.L
		{
			OFFSET 0.017024 0.000000 -0.324839
			CHANNELS 6 Xposition Yposition Zposition Xrotation Yrotation Zrotation
			JOINT foot.L
			{
				OFFSET 0.016336 0.000000 -0.311709
				CHANNELS 3 Xrotation Yrotation Zrotation
				End Site
				{
					OFFSET 0.013844 -0.141152 -0.059272
				}
			}
			JOINT heel.02.L
			{
				OFFSET 0.016336 0.000000 -0.311709
				CHANNELS 3 Xrotation Yrotation Zrotation
				End Site
				{
					OFFSET -0.075354 0.032899 -0.074061
				}
			}
		}
	}
	JOINT thigh.R
	{
		OFFSET -0.101093 0.000000 0.000000
		CHANNELS 6 Xposition Yposition Zposition Xrotation Yrotation Zrotation
		JOINT shin.R
		{
			OFFSET -0.017711 0.000000 -0.337939
			CHANNELS 6 Xposition Yposition Zposition Xrotation Yrotation Zrotation
			JOINT foot.R
			{
				OFFSET -0.016420 0.000000 -0.313312
				CHANNELS 3 Xrotation Yrotation Zrotation
				End Site
				{
					OFFSET -0.015039 -0.153337 -0.064389
				}
			}
			JOINT heel.02.R
			{
				OFFSET -0.016420 0.000000 -0.313312
				CHANNELS 3 Xrotation Yrotation Zrotation
				End Site
				{
					OFFSET 0.077975 0.032899 -0.059455
				}
			}
		}
	}
}
MOTION
Frames: 4
Frame Time: 0.041667
0.023206 0.036123 0.704773 -0.000000 0.000000 1.821715 0.000000 -0.000000 -0.000000 -9.355132 1.431649 0.193005 9.990693 0.361494 2.945526 0.000000 0.031259 0.254585 8.029793 -2.505863 -1.453958 0.000000 0.003353 0.192080 2.234914 0.000000 -0.000000 0.000000 0.031259 0.254585 -1.414990 0.002144 0.173659 0.165513 -0.000000 -0.000000 22.644418 77.712970 -27.920891 0.256711 0.000110 0.000915 2.206885 11.971670 -19.916705 0.000000 0.031259 0.254585 -1.365594 0.001998 0.167562 -0.165513 -0.000000 -0.000000 18.280301 -74.339875 23.963632 -0.253497 0.000110 0.000915 1.916592 -10.195254 20.540057 0.000000 -0.000000 0.000000 0.467341 0.000000 -0.000080 0.000000 -0.000000 0.000000 0.467341 0.000000 0.000000 0.101090 -0.000000 -0.000825 -0.370190 2.631115 -0.010911 0.017024 0.000000 -0.324839 4.486990 3.283882 0.106747 -3.492943 -5.281769 10.685156 -0.512691 -28.039846 -16.441888 -0.101090 -0.000000 0.000825 -0.576026 0.781506 0.034105 -0.017711 0.000000 -0.337939 9.846803 -3.818053 -0.188637 -10.756515 7.958768 -12.616398 -8.256539 33.808060 19.292242 
0.023168 0.034602 0.699207 -0.000000 0.000000 1.997030 -0.000000 -0.000000 0.000000 -9.476543 1.481561 0.201334 9.992130 0.333598 2.718041 0.000000 0.031259 0.254585 8.380319 -2.719555 -1.321993 0.000000 0.003353 0.192079 2.263552 -0.000000 -0.000001 0.000000 0.031259 0.254585 -1.503046 0.002418 0.184458 0.165513 -0.000000 -0.000000 22.274239 77.809672 -27.426070 0.256711 0.000110 0.000915 2.179500 11.853102 -19.875302 0.000000 0.031259 0.254585 -1.453691 0.002264 0.178484 -0.165513 -0.000000 -0.000000 18.888065 -74.510493 24.675208 -0.253497 0.000110 0.000915 1.767623 -9.595116 20.187741 0.000000 0.000000 0.000000 0.601055 0.000000 -0.000012 -0.000000 0.000000 0.000000 0.601021 -0.000000 0.000000 0.101088 0.000000 -0.001060 -0.278654 2.644790 -0.008181 0.017024 -0.000000 -0.324839 4.471041 3.355352 0.103574 -3.812013 -5.257165 10.487020 -0.574072 -28.169729 -16.493464 -0.101088 0.000000 0.001060 -0.372139 0.675668 0.021690 -0.017711 0.000000 -0.337939 9.565328 -3.591159 -0.202234 -11.052901 8.117872 -12.768298 -8.202999 32.533103 17.389334 
0.023482 0.033541 0.695520 -0.000000 0.000000 2.145784 0.000000 -0.000000 -0.000000 -9.565135 1.492822 0.204040 9.993135 0.310401 2.528846 -0.000000 0.031259 0.254585 8.703189 -2.831055 -1.249581 -0.000000 0.003353 0.192079 2.230074 0.000000 0.000000 -0.000000 0.031259 0.254585 -1.550607 0.002575 0.190407 0.165513 -0.000000 -0.000000 22.040189 77.922910 -27.089708 0.256711 0.000110 0.000915 2.143257 11.701219 -19.809237 -0.000000 0.031259 0.254585 -1.501253 0.002414 0.184309 -0.165512 -0.000000 0.000000 19.351087 -74.671098 25.200579 -0.253497 0.000110 0.000915 1.655455 -9.117083 19.954305 0.000000 -0.000000 -0.000000 0.672102 -0.000000 -0.000032 0.000000 -0.000000 -0.000000 0.672102 -0.000000 0.000000 0.101086 -0.000000 -0.001186 -0.237080 2.708004 -0.006829 0.017024 0.000000 -0.324839 4.497203 3.358854 0.104044 -4.062728 -5.230209 10.316951 -0.641873 -28.277736 -16.521186 -0.101086 -0.000000 0.001186 -0.203578 0.629445 0.011784 -0.017711 -0.000000 -0.337939 9.357277 -3.456651 -0.208839 -11.229424 8.169518 -12.780456 -8.019985 31.416049 16.027657 
0.024063 0.033054 0.694109 -0.000000 0.000000 2.281173 -0.000000 -0.000000 -0.000000 -9.609470 1.479324 0.202778 9.994108 0.290947 2.370425 0.000000 0.031259 0.254585 8.961468 -2.854676 -1.272976 0.000000 0.003353 0.192079 2.141832 -0.000000 0.000000 0.000000 0.031259 0.254585 -1.563288 0.002618 0.191989 0.165513 0.000000 0.000000 21.878283 78.052451 -26.834147 0.256711 0.000110 0.000915 2.097349 11.510559 -19.719366 0.000000 0.031259 0.254585 -1.513932 0.002455 0.185915 -0.165513 -0.000000 -0.000000 19.613090 -74.776276 25.490064 -0.253497 0.000110 0.000915 1.597326 -8.869036 19.823007 -0.000000 0.000000 0.000000 0.699872 -0.000000 0.000066 -0.000000 0.000000 0.000000 0.699872 -0.000000 0.000000 0.101086 -0.000000 -0.001235 -0.254389 2.806510 -0.007109 0.017024 -0.000000 -0.324839 4.555149 3.308253 0.107400 -4.196975 -5.190099 10.172513 -0.718804 -28.395880 -16.549313 -0.101086 -0.000000 0.001235 -0.072944 0.632383 0.004224 -0.017711 0.000000 -0.337939 9.216396 -3.407713 -0.209632 -11.293847 8.107859 -12.640820 -7.772921 30.651553 15.332340 
